<?xml version="1.0" encoding="UTF-8" standalone="no"?>
<!-- Created with Inkscape (http://www.inkscape.org/) -->

<svg
   width="210mm"
   height="297mm"
   viewBox="0 0 210 297"
   version="1.1"
   id="svg1"
   xml:space="preserve"
   inkscape:version="1.4.2 (f4327f4, 2025-05-13)"
   sodipodi:docname="NUEVOlogobukiping.svg"
   xmlns:inkscape="http://www.inkscape.org/namespaces/inkscape"
   xmlns:sodipodi="http://sodipodi.sourceforge.net/DTD/sodipodi-0.dtd"
   xmlns="http://www.w3.org/2000/svg"
   xmlns:svg="http://www.w3.org/2000/svg"><sodipodi:namedview
     id="namedview1"
     pagecolor="#ffffff"
     bordercolor="#000000"
     borderopacity="0.25"
     inkscape:showpageshadow="2"
     inkscape:pageopacity="0.0"
     inkscape:pagecheckerboard="0"
     inkscape:deskcolor="#d1d1d1"
     inkscape:document-units="mm"
     inkscape:zoom="0.97386896"
     inkscape:cx="338.85462"
     inkscape:cy="412.27312"
     inkscape:window-width="1920"
     inkscape:window-height="991"
     inkscape:window-x="-9"
     inkscape:window-y="-9"
     inkscape:window-maximized="1"
     inkscape:current-layer="layer1" /><defs
     id="defs1"><inkscape:perspective
       sodipodi:type="inkscape:persp3d"
       inkscape:vp_x="0 : 148.5 : 1"
       inkscape:vp_y="0 : 1000 : 0"
       inkscape:vp_z="210 : 148.5 : 1"
       inkscape:persp3d-origin="105 : 99 : 1"
       id="perspective35" /></defs><g
     inkscape:label="Capa 1"
     inkscape:groupmode="layer"
     id="layer1"><path
       style="fill:#ee8282;stroke-width:0.575487"
       d="m -66.069043,112.69897 94.890115,2.7852 z"
       id="path3" /><path
       style="fill:#ee8282;stroke-width:0.520127"
       d="M 87.752302,161.80591 118.43415,318.36724"
       id="path10" /><ellipse
       style="fill:#0066ff;stroke-width:0.274813"
       id="path21"
       cx="92.531792"
       cy="156.95399"
       rx="0.8355993"
       ry="0.13103262" /><ellipse
       style="fill:#ee8282;stroke-width:0.274813"
       id="path22"
       cx="74.148621"
       cy="146.99551"
       rx="0.53174502"
       ry="0.65516311" /><ellipse
       style="fill:#ee8282;stroke-width:0.520139"
       id="path24"
       cx="77.115761"
       cy="189.69797"
       rx="0.14273919"
       ry="4.2467389"
       transform="matrix(0.99995349,-0.00964472,0,1,0,0)" /><rect
       style="fill:#000055;stroke-width:0.5614"
       id="rect31"
       width="30.92865"
       height="47.463551"
       x="56.557922"
       y="59.98954"
       ry="1.7131536"
       transform="matrix(0.99996896,-0.00787853,0,1,0,0)" /><rect
       style="fill:#5555ff;stroke-width:0.538949"
       id="rect32"
       width="56.396"
       height="24.231398"
       x="55.858879"
       y="110.9504"
       ry="1.4131285"
       transform="matrix(0.99996896,-0.00787853,0,1,0,0)" /><rect
       style="fill:#0000d4;stroke-width:0.568993"
       id="rect33"
       width="26.453966"
       height="23.846542"
       x="87.376312"
       y="36.929337"
       ry="0.18065561"
       transform="matrix(0.99996896,-0.00787853,0,1,0,0)" /><rect
       style="fill:#aaaaff;stroke-width:0.626435"
       id="rect34"
       width="24.895267"
       height="24.464787"
       x="87.575905"
       y="73.582359"
       ry="0.19113116"
       transform="matrix(0.99996896,-0.00787853,0,1,0,0)" /><path
       style="fill:#0000aa;stroke-width:0.374595"
       d="M 56.182895,60.187209 87.441144,36.033557 87.722748,60.462068 Z"
       id="path83-5" /><path
       style="fill:#55ff99;stroke-width:0.630767"
       id="path84"
       sodipodi:type="arc"
       sodipodi:cx="-67.024529"
       sodipodi:cy="111.18442"
       sodipodi:rx="30.164818"
       sodipodi:ry="43.739769"
       sodipodi:start="0"
       sodipodi:end="3.1415927"
       sodipodi:open="true"
       sodipodi:arc-type="arc"
       d="m -36.859711,111.18442 a 30.164818,43.739769 0 0 1 -15.082409,37.87975 30.164818,43.739769 0 0 1 -30.164818,0 30.164818,43.739769 0 0 1 -15.082408,-37.87975"
       transform="matrix(0,-1,0.99996868,-0.00791417,0,0)" /><path
       style="fill:#2a2aff;stroke-width:1.16043"
       id="path85"
       sodipodi:type="arc"
       sodipodi:cx="-104.27376"
       sodipodi:cy="111.35908"
       sodipodi:rx="30.779705"
       sodipodi:ry="45.098904"
       sodipodi:start="0"
       sodipodi:end="3.1415927"
       sodipodi:open="true"
       sodipodi:arc-type="arc"
       d="m -73.494053,111.35908 a 30.779705,45.098904 0 0 1 -15.389853,39.05679 30.779705,45.098904 0 0 1 -30.779704,0 30.779705,45.098904 0 0 1 -15.38985,-39.05679"
       transform="matrix(0,-1,0.99996896,-0.00787853,0,0)" /><path
       style="fill:#ffffff;stroke-width:0.681553"
       id="path86"
       sodipodi:type="arc"
       sodipodi:cx="-67.134956"
       sodipodi:cy="110.24712"
       sodipodi:rx="6.3590775"
       sodipodi:ry="11.120277"
       sodipodi:start="0"
       sodipodi:end="3.1415927"
       sodipodi:open="true"
       sodipodi:arc-type="arc"
       d="m -60.775879,110.24712 a 6.3590775,11.120277 0 0 1 -3.179539,9.63045 6.3590775,11.120277 0 0 1 -6.359077,0 6.3590775,11.120277 0 0 1 -3.179539,-9.63045"
       transform="matrix(0,-1,0.99996896,-0.00787853,0,0)" /><path
       style="fill:#ffffff;stroke-width:0.690952"
       id="path87"
       sodipodi:type="arc"
       sodipodi:cx="-104.58286"
       sodipodi:cy="111.35912"
       sodipodi:rx="6.5357189"
       sodipodi:ry="11.120277"
       sodipodi:start="0"
       sodipodi:end="3.1415927"
       sodipodi:open="true"
       sodipodi:arc-type="arc"
       d="m -98.047144,111.35912 a 6.5357189,11.120277 0 0 1 -3.267856,9.63045 6.5357189,11.120277 0 0 1 -6.53572,0 6.5357189,11.120277 0 0 1 -3.26786,-9.63045"
       transform="matrix(0,-1,0.99996896,-0.00787853,0,0)" /><path
       style="fill:#ffffff;stroke-width:0.304063"
       id="path88"
       sodipodi:type="arc"
       sodipodi:cx="14.97219"
       sodipodi:cy="84.230888"
       sodipodi:rx="12.089279"
       sodipodi:ry="5.8964677"
       sodipodi:start="0"
       sodipodi:end="3.1415927"
       sodipodi:open="true"
       sodipodi:arc-type="arc"
       d="m 27.061469,84.230888 a 12.089279,5.8964677 0 0 1 -6.04464,5.106491 12.089279,5.8964677 0 0 1 -12.089279,0 12.089279,5.8964677 0 0 1 -6.0446393,-5.106491" /><path
       style="fill:#ffffff;stroke-width:0.274813"
       id="path89"
       sodipodi:type="arc"
       sodipodi:cx="35.027378"
       sodipodi:cy="90.782516"
       sodipodi:rx="6.2290134"
       sodipodi:ry="6.6826634"
       sodipodi:start="0"
       sodipodi:end="3.1415927"
       sodipodi:open="true"
       sodipodi:arc-type="arc"
       d="m 41.256392,90.782516 a 6.2290134,6.6826634 0 0 1 -3.114507,5.787357 6.2290134,6.6826634 0 0 1 -6.229014,0 6.2290134,6.6826634 0 0 1 -3.114506,-5.787357" /><text
       xml:space="preserve"
       style="font-style:normal;font-variant:normal;font-weight:normal;font-stretch:normal;font-size:3.175px;font-family:Haettenschweiler;-inkscape-font-specification:'Haettenschweiler, Normal';font-variant-ligatures:normal;font-variant-caps:normal;font-variant-numeric:normal;font-variant-east-asian:normal;text-align:start;writing-mode:lr-tb;direction:ltr;text-anchor:start;white-space:pre;inline-size:23.6821;display:inline;fill:#0044aa;stroke-width:0.264583"
       x="79.331337"
       y="233.10374"
       id="text102"
       transform="matrix(21.777467,-0.21004739,0,9.260407,-1710.931,-1978.9328)"><tspan
         x="79.331337"
         y="233.10374"
         id="tspan1">BUKIPING</tspan></text></g></svg>
